<svg width="52" height="52" viewBox="0 0 52 52" fill="none" xmlns="http://www.w3.org/2000/svg">
<path d="M25.695 51.39C39.886 51.39 51.39 39.886 51.39 25.695C51.39 11.504 39.886 0 25.695 0C11.504 0 0 11.504 0 25.695C0 39.886 11.504 51.39 25.695 51.39Z" fill="url(#paint0_linear_233_57)"/>
<path d="M25.5013 32.917C21.4125 32.917 18.0866 29.5901 18.0866 25.5012C18.0866 21.4124 21.4125 18.0875 25.5013 18.0875C29.5904 18.0875 32.9173 21.4124 32.9173 25.5012C32.9173 29.5901 29.5904 32.917 25.5013 32.917ZM25.5013 20.0832C22.5137 20.0832 20.0823 22.5134 20.0823 25.5012C20.0823 28.4891 22.5137 30.9213 25.5013 30.9213C28.4902 30.9213 30.9216 28.4891 30.9216 25.5012C30.9216 22.5134 28.4902 20.0832 25.5013 20.0832Z" fill="white"/>
<path d="M34.1833 18.5618C34.7795 18.5619 35.2629 18.0787 35.2631 17.4825C35.2632 16.8863 34.78 16.4028 34.1838 16.4027C33.5875 16.4026 33.1041 16.8858 33.104 17.482C33.1038 18.0782 33.5871 18.5617 34.1833 18.5618Z" fill="white"/>
<path d="M31.8802 40.0011L19.1165 39.9984C14.6406 39.9975 11.0008 36.3559 11.0017 31.881L11.0044 19.1173C11.0054 14.6406 14.6468 11.0008 19.1226 11.0017L31.8864 11.0044C36.3622 11.0054 40.0021 14.6468 40.0011 19.1234L39.9984 31.8872C39.9975 36.362 36.3561 40.0021 31.8802 40.0011ZM19.1222 12.9975C15.7476 12.9967 13.0009 15.7421 13.0002 19.1177L12.9975 31.8814C12.9967 35.2552 15.7423 38.002 19.1169 38.0027L31.8806 38.0054C35.2552 38.0061 38.002 35.2606 38.0027 31.8868L38.0054 19.123C38.0061 15.7474 35.2606 13.0009 31.886 13.0002L19.1222 12.9975V12.9975Z" fill="white"/>
<defs>
<linearGradient id="paint0_linear_233_57" x1="8.5" y1="6.5" x2="43" y2="47" gradientUnits="userSpaceOnUse">
<stop offset="0.138542" stop-color="#FFD600"/>
<stop offset="0.336458" stop-color="#FA7E1E"/>
<stop offset="0.539583" stop-color="#D62976"/>
<stop offset="0.810417" stop-color="#962FBF"/>
<stop offset="1" stop-color="#4F5BD5"/>
</linearGradient>
</defs>
</svg>
