<svg width="51" height="51" viewBox="0 0 51 51" fill="none" xmlns="http://www.w3.org/2000/svg">
<path d="M25.245 0C18.8112 0.0380463 12.6317 2.51274 7.95501 6.92411C3.27829 11.3355 0.452986 17.3546 0.0499193 23.7655C-0.353147 30.1764 1.69607 36.501 5.78356 41.4616C9.87104 46.4223 15.6921 49.649 22.0706 50.49V31.6929H15.7217V25.3543H22.0706V19.0158C21.9416 17.7772 22.0827 16.5255 22.4841 15.3466C22.8856 14.1677 23.5379 13.0895 24.3963 12.1862C25.2547 11.2828 26.2987 10.5757 27.4568 10.1134C28.6148 9.65103 29.8594 9.44448 31.105 9.50788C32.8485 9.50379 34.5905 9.60964 36.3206 9.82481V15.875H33.2128C30.2765 15.875 28.4194 17.4279 28.4194 19.4531V25.3543H35.5619L34.7683 31.6929H28.4194V50.49C34.7979 49.649 40.619 46.4223 44.7064 41.4616C48.7939 36.501 50.8432 30.1764 50.4401 23.7655C50.037 17.3546 47.2117 11.3355 42.535 6.92411C37.8583 2.51274 31.6788 0.0380463 25.245 0V0Z" fill="#1877F2"/>
</svg>
