<svg width="52" height="53" viewBox="0 0 52 53" fill="none" xmlns="http://www.w3.org/2000/svg">
<path d="M51.7511 27.034C51.7511 25.251 51.5785 23.4105 51.2909 21.6849H26.386V31.8655H40.6502C40.0751 35.1439 38.177 38.0198 35.3587 39.8604L43.8712 46.4748C48.8752 41.8159 51.7511 35.0289 51.7511 27.034Z" fill="#4280EF"/>
<path d="M26.386 52.8017C33.5181 52.8017 39.4999 50.4435 43.8712 46.4173L35.3587 39.8604C33.0005 41.4709 29.9521 42.3911 26.386 42.3911C19.4839 42.3911 13.6747 37.7322 11.5466 31.5204L2.80396 38.2499C7.2903 47.165 16.378 52.8017 26.386 52.8017Z" fill="#34A353"/>
<path d="M11.5466 31.4629C10.4537 28.1844 10.4537 24.6184 11.5466 21.3399L2.80396 14.5529C-0.934654 22.0301 -0.934654 30.8302 2.80396 38.2499L11.5466 31.4629Z" fill="#F6B704"/>
<path d="M26.386 10.4691C30.1246 10.4116 33.8057 11.8495 36.509 14.4378L44.0438 6.84554C39.2698 2.35921 32.9429 -0.0565133 26.386 0.00100384C16.378 0.00100384 7.2903 5.63768 2.80396 14.5528L11.5466 21.3399C13.6747 15.0705 19.4839 10.4691 26.386 10.4691Z" fill="#E54335"/>
</svg>
