<svg width="48" height="55" viewBox="0 0 48 55" fill="none" xmlns="http://www.w3.org/2000/svg">
<g clip-path="url(#clip0_233_43)">
<path d="M18.7951 21.6405V19.4879C18.0583 19.3696 17.314 19.3048 16.5681 19.2939C9.34636 19.2783 2.95277 24.0241 0.784079 31.0096C-1.38461 37.995 1.17528 45.5992 7.10299 49.7817C4.92928 47.4226 3.47537 44.4758 2.91674 41.2972C2.35811 38.1186 2.71865 34.8439 3.95483 31.8685C5.19102 28.8931 7.25 26.3441 9.88327 24.5292C12.5165 22.7143 15.6115 21.7111 18.7946 21.6407L18.7951 21.6405Z" fill="#25F4EE"/>
<path d="M19.1954 46.0237C23.2332 46.0181 26.5521 42.7924 26.7289 38.7017V2.19754H33.3051C33.1709 1.43475 33.1068 0.660971 33.1138 -0.113831L24.1189 -0.113831V36.3551C23.9693 40.4666 20.6424 43.7233 16.5854 43.7299C15.3731 43.7195 14.1805 43.4172 13.1059 42.8478C13.8023 43.8264 14.717 44.6241 15.7753 45.176C16.8335 45.7279 18.0054 46.0184 19.1954 46.0237V46.0237ZM45.5883 14.583V12.554C43.168 12.555 40.8014 11.8307 38.7857 10.4723C40.5527 12.5555 42.9407 13.9985 45.5883 14.583V14.583Z" fill="#25F4EE"/>
<path d="M38.7857 10.4722C36.7999 8.17921 35.7052 5.23146 35.7062 2.17969H33.3051C33.6152 3.86697 34.2611 5.47248 35.2034 6.89822C36.1457 8.32397 37.3646 9.54004 38.7857 10.4722V10.4722ZM16.5681 28.4155C14.8841 28.4242 13.2512 29.0036 11.9292 30.0614C10.6071 31.1193 9.67177 32.595 9.27179 34.2539C8.8718 35.9128 9.03015 37.6597 9.72168 39.2169C10.4132 40.774 11.5982 42.0521 13.0883 42.8478C12.2736 41.7071 11.7857 40.3602 11.6786 38.9559C11.5714 37.5516 11.8491 36.1447 12.4811 34.8904C13.113 33.6362 14.0746 32.5835 15.2595 31.8487C16.4444 31.1139 17.8065 30.7256 19.1954 30.7267C19.9505 30.7367 20.7003 30.8559 21.4222 31.0806V21.7992C20.685 21.6872 19.9409 21.6282 19.1954 21.6229H18.7951V28.6801C18.0694 28.4827 17.3192 28.3936 16.5681 28.4155V28.4155Z" fill="#FE2C55"/>
<path d="M45.5883 14.5829V21.6404C41.1078 21.6316 36.7435 20.1933 33.1138 17.5294V36.0727C33.0945 45.3255 25.6924 52.8163 16.5681 52.8163C13.1794 52.8225 9.87229 51.7622 7.10299 49.7817C9.36118 52.2448 12.2985 53.9612 15.5323 54.7073C18.7661 55.4534 22.1466 55.1946 25.2333 53.9647C28.3201 52.7348 30.97 50.5907 32.838 47.8117C34.706 45.0328 35.7055 41.7477 35.7062 38.3846V19.8938C39.3481 22.5402 43.7177 23.9596 48.1981 23.9518V14.8646C47.3209 14.862 46.4464 14.7676 45.5883 14.5829V14.5829Z" fill="#FE2C55"/>
<path d="M33.1138 36.0727V17.5295C36.7545 20.1782 41.1249 21.5979 45.6056 21.5874V14.5302C42.9586 13.9633 40.5649 12.5391 38.7857 10.4722C37.3646 9.54004 36.1457 8.32397 35.2034 6.89822C34.2611 5.47248 33.6152 3.86697 33.3051 2.17969H26.7289V38.7021C26.6649 40.2919 26.1141 41.8219 25.1531 43.0796C24.1921 44.3374 22.8686 45.2602 21.3666 45.7201C19.8646 46.1799 18.2586 46.1538 16.7719 45.6455C15.2851 45.1371 13.9915 44.1717 13.0707 42.8835C11.5804 42.0879 10.3951 40.8098 9.70341 39.2526C9.01171 37.6953 8.85327 35.9482 9.25328 34.2892C9.6533 32.6301 10.5888 31.1543 11.911 30.0963C13.2333 29.0384 14.8663 28.4592 16.5505 28.4507C17.3059 28.4576 18.0561 28.5765 18.7775 28.8037V21.7462C15.5773 21.8013 12.462 22.7993 9.81146 24.6188C7.16094 26.4383 5.0897 29.0005 3.85029 31.993C2.61089 34.9855 2.25686 38.2791 2.83138 41.4722C3.40591 44.6653 4.88415 47.6198 7.08589 49.9756C9.88239 51.8909 13.1942 52.8831 16.5681 52.8164C25.6924 52.8164 33.0945 45.3255 33.1138 36.0727V36.0727Z" fill="black"/>
</g>
<defs>
<clipPath id="clip0_233_43">
<rect width="48" height="55" fill="white"/>
</clipPath>
</defs>
</svg>
