<svg width="51" height="51" viewBox="0 0 51 51" fill="none" xmlns="http://www.w3.org/2000/svg">
<g clip-path="url(#clip0_233_50)">
<path fill-rule="evenodd" clip-rule="evenodd" d="M25.245 50.49C39.1874 50.49 50.49 39.1874 50.49 25.245C50.49 11.3026 39.1874 0 25.245 0C11.3026 0 0 11.3026 0 25.245C0 39.1874 11.3026 50.49 25.245 50.49Z" fill="#007EBB"/>
<path fill-rule="evenodd" clip-rule="evenodd" d="M41.3738 39.9713H35.034V29.1733C35.034 26.2128 33.9091 24.5583 31.5658 24.5583C29.0167 24.5583 27.6849 26.28 27.6849 29.1733V39.9713H21.5751V19.4013H27.6849V22.172C27.6849 22.172 29.5219 18.7728 33.887 18.7728C38.2501 18.7728 41.3738 21.4372 41.3738 26.9476V39.9713ZM14.2862 16.7078C12.2051 16.7078 10.5188 15.0082 10.5188 12.912C10.5188 10.8159 12.2051 9.11627 14.2862 9.11627C16.3673 9.11627 18.0527 10.8159 18.0527 12.912C18.0527 15.0082 16.3673 16.7078 14.2862 16.7078ZM11.1314 39.9713H17.5023V19.4013H11.1314V39.9713Z" fill="white"/>
</g>
<defs>
<clipPath id="clip0_233_50">
<rect width="50.49" height="50.49" fill="white"/>
</clipPath>
</defs>
</svg>
