<svg width="201" height="24" viewBox="0 0 201 24" fill="none" xmlns="http://www.w3.org/2000/svg">
<path d="M21.7334 23L12.6377 1.50657C12.3675 0.846153 11.7972 0.45591 11.1067 0.45591C10.4163 0.45591 9.78591 0.846153 9.51574 1.50657L0.330001 23H4.02231L11.0767 6.54972L18.0411 23H21.7334ZM31.6519 19.6979V0.786116H28.3499V21.2289C28.3499 22.1895 29.1604 23 30.121 23H45.0103V19.6979H31.6519ZM65.2369 0.786116L58.1224 17.5066L50.978 0.786116H47.4058L56.5915 22.2195C56.8617 22.8499 57.4921 23.2702 58.1825 23.2702C58.8729 23.2702 59.4433 22.8499 59.7134 22.2195L68.8091 0.786116H65.2369ZM84.7314 23.3002C91.0354 23.3002 96.1086 18.167 96.1086 11.773C96.1086 5.31895 90.9153 0.365854 84.7314 0.365854C78.4275 0.365854 73.3243 5.37899 73.3243 11.773C73.3243 18.137 78.4275 23.3002 84.7314 23.3002ZM84.7314 20.0582C80.2586 20.0582 76.6264 16.3058 76.6264 11.773C76.5964 7.21013 80.2586 3.60788 84.7314 3.60788C89.1742 3.60788 92.8365 7.21013 92.8065 11.773C92.8065 16.3358 89.2042 20.0582 84.7314 20.0582ZM118.16 23H121.913L116.299 15.015C119.481 14.2645 121.792 11.6229 121.792 8.20075C121.792 4.14822 118.52 0.786116 114.468 0.786116H105.402C104.442 0.786116 103.631 1.5666 103.631 2.5272V23H106.933V15.2251H112.757L118.16 23ZM106.933 4.08818H114.468C116.689 4.08818 118.49 5.97936 118.49 8.20075C118.49 10.3921 116.749 12.1332 114.468 12.1332H106.933V4.08818ZM148.577 23L139.481 1.50657C139.211 0.846153 138.641 0.45591 137.95 0.45591C137.26 0.45591 136.63 0.846153 136.359 1.50657L127.174 23H130.866L137.92 6.54972L144.885 23H148.577ZM163.869 0.786116H156.875C155.914 0.786116 155.194 1.53658 155.194 2.46717V21.3189C155.194 22.2495 155.944 23 156.905 23H163.869C170.083 23 175.066 18.0769 175.066 11.8931C175.066 5.70919 170.053 0.786116 163.869 0.786116ZM163.869 19.6979H158.496V4.08818H163.869C168.252 4.08818 171.764 7.54034 171.764 11.8931C171.734 16.2458 168.282 19.6979 163.869 19.6979ZM200.671 23L191.575 1.50657C191.305 0.846153 190.735 0.45591 190.044 0.45591C189.354 0.45591 188.723 0.846153 188.453 1.50657L179.268 23H182.96L190.014 6.54972L196.979 23H200.671Z" fill="white"/>
</svg>
